<?xml version="1.0" encoding="utf-8"?>
<!-- Generator: Adobe Illustrator 16.0.4, SVG Export Plug-In . SVG Version: 6.00 Build 0)  -->
<!DOCTYPE svg PUBLIC "-//W3C//DTD SVG 1.1//EN" "http://www.w3.org/Graphics/SVG/1.1/DTD/svg11.dtd">
<svg version="1.1" id="Layer_1" xmlns="http://www.w3.org/2000/svg" xmlns:xlink="http://www.w3.org/1999/xlink" x="0px" y="0px"
	 width="331.5px" height="115.167px" viewBox="0 0 331.5 115.167" enable-background="new 0 0 331.5 115.167" xml:space="preserve">
<g>
	<g>
		<g enable-background="new    ">
			<path fill="#4D4D4D" d="M155.373,36.542c-0.07,11.903-6.621,21.201-18.876,21.201c-11.41,0-18.876-8.805-18.876-27.047
				c0-18.243,7.466-27.047,18.876-27.047c12.608,0,19.018,9.509,18.876,21.623h-10.988c-0.282-9.297-2.958-11.48-7.043-11.48
				c-4.93,0-8.734,4.438-8.734,16.904s3.804,16.904,8.734,16.904c5.564,0,6.762-5.494,7.043-11.059H155.373z"/>
			<path fill="#4D4D4D" d="M160.65,30.626c0-16.271,6.34-26.977,19.158-26.977c12.819,0,19.158,10.706,19.158,27.047
				s-6.339,27.047-19.158,27.047c-12.818,0-19.158-10.706-19.158-27.047V30.626z M171.639,30.767c0,12.467,2.676,17.115,8.17,17.115
				s8.17-4.648,8.17-17.186s-2.676-17.187-8.17-17.187s-8.17,4.649-8.17,17.187V30.767z"/>
			<path fill="#4D4D4D" d="M205.441,4.636h24.09v9.86h-13.383v9.86h13.383v9.861h-13.383v22.539h-10.707V4.636z"/>
			<path fill="#4D4D4D" d="M236.711,4.636H260.8v9.86h-13.382v9.86H260.8v9.861h-13.382v22.539h-10.707V4.636z"/>
			<path fill="#4D4D4D" d="M268.824,4.636h25.357v9.86h-14.65v10.002h14.65v9.86h-14.65v12.537h14.65v9.861h-25.357V4.636z"/>
			<path fill="#4D4D4D" d="M304.039,4.636h25.355v9.86h-14.65v10.002h14.65v9.86h-14.65v12.537h14.65v9.861h-25.355V4.636z"/>
		</g>
		<g enable-background="new    ">
			<path fill="#754C24" d="M119.944,73.017h4.367c0,3.521,0,5.705-0.141,8.029c1.901-7.465,6.832-8.803,10.213-8.945v5.494
				c-0.563-0.352-1.127-0.492-1.761-0.492c-3.24,0-7.959,4.014-7.959,13.664v20.566h-4.719V73.017z"/>
			<path fill="#754C24" d="M136.565,92.105c0-10.918,4.508-20.004,14.792-20.004c10.213,0,14.721,9.086,14.721,20.074
				s-4.508,20.074-14.721,20.074c-10.284,0-14.792-9.086-14.792-20.074V92.105z M141.496,92.246c0,10.143,3.31,15.566,9.931,15.566
				c6.41,0,9.72-5.424,9.72-15.637s-3.31-15.637-9.86-15.637c-6.48,0-9.791,5.424-9.791,15.637V92.246z"/>
			<path fill="#754C24" d="M198.544,111.333h-4.367c0-3.381,0-5.494,0.071-7.324c-1.691,5.211-5.283,8.24-10.143,8.24
				c-7.607,0-12.82-8.029-12.82-20.004c0-11.832,4.79-20.145,12.82-20.145c4.296,0,8.1,2.184,10.143,8.312
				c-0.071-2.324-0.071-4.508-0.071-7.396h4.367V111.333z M176.005,92.246c0,8.664,3.099,15.355,8.945,15.355
				c3.028,0,5.142-1.621,6.691-4.227c1.62-2.676,2.183-6.197,2.183-11.199c0-5.07-0.562-8.592-2.183-11.199
				c-1.55-2.605-3.663-4.225-6.691-4.225c-5.847,0-8.945,6.689-8.945,15.424V92.246z"/>
			<path fill="#754C24" d="M223.262,82.949c0-4.859-2.535-6.621-6.197-6.621c-3.24,0-5.564,2.324-5.564,5.705
				c0,4.297,3.592,5.846,8.24,7.256c4.227,1.268,9.156,3.873,9.156,11.551c0,6.762-4.859,11.41-11.41,11.41
				c-6.973,0-11.621-4.156-11.974-12.186h4.649c0.07,5.213,3.099,7.818,7.324,7.818c4.156,0,6.48-2.816,6.48-6.691
				c0-4.648-3.24-6.48-8.382-8.1c-4.86-1.619-9.016-4.086-9.016-10.918c0-6.127,4.438-10.072,10.706-10.072
				c6.551,0,10.424,3.734,10.636,10.848H223.262z"/>
			<path fill="#754C24" d="M238.051,77.455h-5.354v-4.438h5.354V60.902h4.719v12.115h5.283v4.438h-5.283v33.879h-4.719V77.455z"/>
			<path fill="#754C24" d="M255.941,93.583c0,7.961,3.24,14.229,9.72,14.229c4.648,0,7.606-3.17,8.593-7.607h4.648
				c-0.704,3.945-2.465,6.975-4.789,9.016c-2.324,1.973-5.213,3.029-8.452,3.029c-10.565,0-14.65-10.143-14.65-20.004
				c0-11.902,5.493-20.145,14.509-20.145c4.508,0,8.03,2.043,10.284,5.424c3.099,4.578,3.592,10.496,3.521,16.059H255.941z
				 M274.535,89.429c-0.141-7.959-3.451-13.312-9.227-13.312c-5.564,0-9.227,5.705-9.367,13.312H274.535z"/>
			<path fill="#754C24" d="M286.576,73.017h4.367c0,3.521,0,5.705-0.141,8.029c1.901-7.465,6.832-8.803,10.213-8.945v5.494
				c-0.563-0.352-1.127-0.492-1.761-0.492c-3.24,0-7.96,4.014-7.96,13.664v20.566h-4.719V73.017z"/>
			<path fill="#754C24" d="M322.072,82.949c0-4.859-2.535-6.621-6.198-6.621c-3.239,0-5.564,2.324-5.564,5.705
				c0,4.297,3.593,5.846,8.241,7.256c4.226,1.268,9.156,3.873,9.156,11.551c0,6.762-4.86,11.41-11.41,11.41
				c-6.973,0-11.622-4.156-11.975-12.186h4.649c0.07,5.213,3.099,7.818,7.325,7.818c4.155,0,6.479-2.816,6.479-6.691
				c0-4.648-3.239-6.48-8.382-8.1c-4.859-1.619-9.016-4.086-9.016-10.918c0-6.127,4.438-10.072,10.706-10.072
				c6.551,0,10.425,3.734,10.636,10.848H322.072z"/>
		</g>
		<g enable-background="new    ">
			<path fill="#4D4D4D" d="M103.475,87.986c-7.251,12.326-24.363,25.232-46.841,25.232c-30.744,0-55.688-23.348-55.688-55.542
				c0-32.194,24.943-55.542,55.688-55.542c22.913,0.145,39.155,13.631,46.986,25.813h-5.076C94.483,22.292,80.417,6.195,56.633,6.05
				c-28.424,0-51.337,21.897-51.337,51.627c0,29.729,22.913,51.627,51.337,51.627c25.088,0,38.865-17.113,41.911-21.318H103.475z"/>
		</g>
	</g>
	<g>
		<path fill="#4D4D4D" d="M103.661,59.017h-70.41c0,0-0.009-42.256,35.205-21.128"/>
		<path fill="#4D4D4D" d="M103.661,59.017h-70.41c0,0-0.009,42.257,35.205,21.128"/>
	</g>
</g>
</svg>
